<svg xmlns="http://www.w3.org/2000/svg" xmlns:xlink="http://www.w3.org/1999/xlink" id="Layer_1" x="0px" y="0px" viewBox="0 0 432 152.43" style="enable-background:new 0 0 432 152.43;" xml:space="preserve"><style type="text/css">	.st0{fill:#FFFFFF;}</style><g>	<g>		<g>			<path class="st0" d="M70.34,65.26c2.99,2.34,6.63,4.3,10.92,5.89c2.9,1.08,6.03,2.08,9.38,3.02c7.87-4.38,15.73-9.93,23.52-16.59    c-2.5-0.85-5.16-1.64-7.99-2.39c-4.49-1.19-8.2-2.24-11.14-3.13c-2.94-0.89-5.26-1.84-6.95-2.83c-1.7-0.99-2.87-2.11-3.51-3.35    c-0.65-1.24-0.97-2.71-0.97-4.4v-0.3c0-2.58,1.12-4.75,3.36-6.49c2.24-1.74,5.59-2.61,10.07-2.61c4.47,0,8.95,0.92,13.42,2.76    c4.47,1.84,9.04,4.35,13.72,7.53l11.93-17.3c-5.37-4.27-11.26-7.55-17.67-9.84c-6.41-2.29-13.45-3.43-21.1-3.43    c-5.37,0-10.28,0.75-14.74,2.24c-4.46,1.49-8.29,3.63-11.5,6.41c-3.21,2.78-5.7,6.09-7.48,9.92c-1.78,3.83-2.67,8.13-2.67,12.9    v0.3c0,5.17,0.82,9.49,2.47,12.97C65.03,60.02,67.34,62.92,70.34,65.26z"></path>			<path class="st0" d="M133.95,69.44c-6.08,4.71-12.61,9.31-19.47,13.52c0.61,0.59,1.07,1.2,1.38,1.83    c0.55,1.14,0.82,2.46,0.82,3.95v0.3c0,3.08-1.32,5.49-3.95,7.23c-2.63,1.74-6.34,2.61-11.11,2.61c-5.12,0-9.89-0.84-14.32-2.53    c-9.85,3.61-20.02,5.9-30.27,6.24c6.23,5.6,13.13,9.76,20.73,12.47c7.65,2.73,15.46,4.1,23.41,4.1c5.67,0,10.83-0.72,15.49-2.16    c4.65-1.44,8.66-3.53,12.02-6.26c3.36-2.73,5.98-6.11,7.85-10.14c1.88-4.03,2.82-8.62,2.82-13.79v-0.3    c0-4.57-0.73-8.5-2.17-11.78C136.35,72.82,135.26,71.06,133.95,69.44z"></path>			<path class="st0" d="M139.98,16.8c-1.57,0,9.4,9.71,9.4,9.71C106.47,82.4,52.85,109.23,4.96,76.63    c46.22,46.49,109.98,9.65,155.71-37.28L171,48.44l7.21-39.47C178.21,8.96,141.55,16.8,139.98,16.8z"></path>		</g>		<g>			<path class="st0" d="M202.5,117.72h-14.13l0.2-7.22c-1.98,3.17-4.36,5.5-7.14,6.99c-2.78,1.48-6.17,2.23-10.16,2.23    c-6.66,0-12.02-2.47-16.1-7.42c-4.08-4.95-6.12-11.49-6.12-19.61c0-8.46,2-15.06,6.02-19.79c4.01-4.73,9.58-7.09,16.72-7.09    c3.72,0,6.99,0.84,9.8,2.51c2.82,1.67,5.18,4.16,7.09,7.47v-8.29h13.82V117.72z M189.19,92.53c0-4.51-1.14-8.07-3.4-10.7    c-2.27-2.63-5.33-3.94-9.19-3.94c-3.96,0-7.07,1.31-9.34,3.92c-2.27,2.61-3.4,6.19-3.4,10.73c0,4.54,1.12,8.07,3.35,10.6    c2.24,2.53,5.33,3.79,9.29,3.79c4.03,0,7.15-1.26,9.37-3.79C188.08,100.6,189.19,97.07,189.19,92.53z"></path>			<path class="st0" d="M216.22,117.72V67.49h14.28v7.88c2.63-3.28,5.45-5.69,8.47-7.24c3.02-1.55,6.37-2.33,10.06-2.33    c3.89,0,7.16,0.66,9.8,1.97c2.64,1.31,4.74,3.32,6.27,6.02c0.75,1.4,1.29,2.98,1.61,4.74c0.32,1.76,0.49,4.51,0.49,8.27v1.59    v29.34h-14.59V92.89c0-6.18-0.72-10.26-2.15-12.24c-1.43-1.98-3.89-2.97-7.37-2.97c-2.01,0-3.87,0.42-5.55,1.25    c-1.69,0.84-3.1,2.02-4.22,3.56c-0.89,1.2-1.53,2.56-1.92,4.1c-0.39,1.54-0.59,3.87-0.59,7.01v2v22.12H216.22z"></path>			<path class="st0" d="M275.82,117.72l11.42-74.95h16.79l14.44,44.13c0.31,0.92,0.64,2.27,1,4.04c0.36,1.78,0.69,3.81,1,6.09    c0.27-2.32,0.58-4.39,0.92-6.22c0.34-1.83,0.67-3.17,0.97-4.02l14.69-44.03h16.54l11.47,74.95h-15.21l-5.48-45.21    c-0.41-3.34-0.68-5.87-0.82-7.58c-0.14-1.71-0.2-3.29-0.2-4.76c0-0.78,0.01-1.37,0.03-1.77c0.02-0.39,0.04-0.74,0.08-1.05    c-0.51,2.94-1,5.47-1.46,7.6c-0.46,2.13-0.88,3.75-1.25,4.84l-15.87,47.92h-9.01L300.24,69.8c-0.14-0.44-0.43-1.67-0.9-3.69    c-0.46-2.01-1.1-4.95-1.92-8.81v2.2c0,3.48-0.31,7.75-0.92,12.8l-0.05,0.2l-5.43,45.21H275.82z"></path>			<path class="st0" d="M427,92.78c0,7.71-2.64,14.13-7.91,19.25c-5.27,5.12-11.96,7.68-20.04,7.68c-8.16,0-14.88-2.56-20.17-7.68    c-5.29-5.12-7.94-11.54-7.94-19.25c0-7.68,2.66-14.1,7.99-19.25c5.32-5.15,12.03-7.73,20.12-7.73c8.12,0,14.81,2.54,20.07,7.63    C424.38,78.52,427,84.97,427,92.78z M412.16,92.68c0-4.1-1.2-7.36-3.58-9.8c-2.39-2.44-5.6-3.66-9.63-3.66    c-4.03,0-7.22,1.21-9.57,3.63c-2.36,2.42-3.53,5.7-3.53,9.83c0,4.1,1.18,7.37,3.53,9.83c2.35,2.46,5.55,3.69,9.57,3.69    c3.99,0,7.19-1.23,9.6-3.69C410.95,100.05,412.16,96.78,412.16,92.68z"></path>		</g>		<g>			<path class="st0" d="M373.32,59.19V27.76h5.88c3.05,0,5.28,0.12,6.69,0.35c1.41,0.24,2.63,0.63,3.66,1.17    c1.22,0.7,2.16,1.62,2.82,2.77c0.66,1.14,1,2.44,1,3.89c0,1.86-0.55,3.35-1.65,4.48c-1.1,1.12-2.75,1.87-4.94,2.24    c2.53,0.37,4.45,1.2,5.74,2.47c1.29,1.27,1.94,2.97,1.94,5.09c0,1.55-0.37,2.96-1.12,4.24c-0.74,1.28-1.77,2.27-3.07,2.97    c-1.16,0.63-2.52,1.08-4.08,1.35c-1.56,0.27-4.14,0.41-7.75,0.41h-0.69H373.32z M380.04,40.32h1.5c2.03,0,3.47-0.29,4.31-0.86    c0.84-0.57,1.27-1.53,1.27-2.88c0-1.32-0.4-2.25-1.21-2.81c-0.81-0.56-2.22-0.84-4.24-0.84h-1.63V40.32z M380.04,53.95h2.64    c1.69,0,2.97-0.37,3.84-1.11c0.87-0.74,1.31-1.81,1.31-3.23c0-1.33-0.43-2.35-1.3-3.05c-0.87-0.7-2.12-1.05-3.77-1.05h-2.73    V53.95z"></path>			<path class="st0" d="M399.57,59.19V27.76h8.56c3.38,0,6.04,0.24,7.99,0.71c1.95,0.47,3.66,1.26,5.13,2.36    c1.9,1.42,3.34,3.2,4.32,5.36c0.98,2.15,1.47,4.6,1.47,7.35c0,2.79-0.5,5.26-1.5,7.42s-2.47,3.93-4.4,5.33    c-1.43,1.03-3.02,1.77-4.78,2.22c-1.75,0.45-4.32,0.68-7.7,0.68h-2.38H399.57z M406.29,53.52h3.73c3.52,0,6.09-0.8,7.69-2.4    c1.61-1.6,2.42-4.14,2.42-7.62c0-3.46-0.8-6-2.42-7.61c-1.61-1.61-4.17-2.41-7.69-2.41h-3.73V53.52z"></path>		</g>	</g>	<g>		<path class="st0" d="M177,141.23v-7.19h-1.2v-2.11h1.2v-2.1c0-1.25,0.29-2.15,0.86-2.69c0.58-0.54,1.52-0.81,2.84-0.81   c0.15,0,0.31,0.01,0.51,0.04c0.19,0.03,0.44,0.08,0.75,0.16v2.15c-0.16-0.09-0.32-0.15-0.47-0.19c-0.15-0.04-0.31-0.06-0.47-0.06   c-0.47,0-0.81,0.12-1.01,0.37c-0.2,0.25-0.3,0.68-0.3,1.29v1.83h1.73v2.11h-1.73v7.19H177z"></path>		<path class="st0" d="M192.88,136.61c0,1.43-0.49,2.62-1.46,3.57c-0.98,0.95-2.21,1.42-3.71,1.42c-1.51,0-2.76-0.47-3.74-1.42   c-0.98-0.95-1.47-2.14-1.47-3.57c0-1.42,0.49-2.61,1.48-3.57c0.99-0.95,2.23-1.43,3.73-1.43c1.5,0,2.74,0.47,3.72,1.41   C192.39,133.97,192.88,135.17,192.88,136.61z M190.13,136.6c0-0.76-0.22-1.36-0.66-1.82c-0.44-0.45-1.04-0.68-1.78-0.68   c-0.75,0-1.34,0.22-1.77,0.67c-0.44,0.45-0.65,1.06-0.65,1.82c0,0.76,0.22,1.37,0.65,1.82c0.44,0.46,1.03,0.68,1.77,0.68   c0.74,0,1.33-0.23,1.78-0.68C189.91,137.96,190.13,137.35,190.13,136.6z"></path>		<path class="st0" d="M197.52,134.32c0.27-0.9,0.66-1.58,1.17-2.03c0.51-0.45,1.14-0.67,1.89-0.67c0.17,0,0.45,0.03,0.84,0.09   c0.08,0.01,0.13,0.02,0.17,0.03l-0.41,2.9c-0.2-0.08-0.41-0.14-0.61-0.18c-0.21-0.04-0.42-0.06-0.65-0.06   c-0.82,0-1.41,0.21-1.77,0.63c-0.36,0.42-0.54,1.12-0.54,2.11v4.1h-2.7v-9.3h2.66L197.52,134.32z"></path>		<path class="st0" d="M208.79,141.23v-14.7h2.59v5.3c0,0.29-0.01,0.58-0.03,0.87s-0.05,0.57-0.09,0.84   c0.44-0.67,0.92-1.16,1.44-1.46c0.52-0.31,1.11-0.46,1.78-0.46c1.33,0,2.36,0.44,3.11,1.31c0.74,0.88,1.11,2.1,1.11,3.66   c0,1.51-0.38,2.72-1.13,3.64c-0.75,0.91-1.74,1.37-2.97,1.37c-0.74,0-1.37-0.14-1.88-0.41c-0.52-0.27-0.96-0.71-1.32-1.29   l0.02,1.34H208.79z M211.25,136.57c0,0.84,0.21,1.49,0.62,1.96c0.41,0.47,0.99,0.7,1.73,0.7c0.74,0,1.32-0.23,1.73-0.7   c0.41-0.47,0.62-1.12,0.62-1.96c0-0.84-0.21-1.5-0.63-1.99c-0.42-0.48-1-0.73-1.74-0.73c-0.71,0-1.28,0.24-1.7,0.73   C211.46,135.07,211.25,135.73,211.25,136.57z"></path>		<path class="st0" d="M223.36,134.32c0.27-0.9,0.66-1.58,1.17-2.03c0.51-0.45,1.14-0.67,1.89-0.67c0.17,0,0.45,0.03,0.84,0.09   c0.08,0.01,0.13,0.02,0.17,0.03l-0.41,2.9c-0.2-0.08-0.41-0.14-0.61-0.18c-0.21-0.04-0.42-0.06-0.65-0.06   c-0.82,0-1.41,0.21-1.77,0.63c-0.36,0.42-0.54,1.12-0.54,2.11v4.1h-2.7v-9.3h2.66L223.36,134.32z"></path>		<path class="st0" d="M237.98,141.23h-2.62l0.04-1.34c-0.37,0.59-0.81,1.02-1.32,1.29c-0.51,0.27-1.14,0.41-1.88,0.41   c-1.23,0-2.23-0.46-2.98-1.37c-0.76-0.92-1.13-2.13-1.13-3.63c0-1.57,0.37-2.79,1.11-3.66c0.74-0.88,1.77-1.31,3.1-1.31   c0.69,0,1.29,0.16,1.82,0.46c0.52,0.31,0.96,0.77,1.31,1.38v-1.54h2.56V141.23z M235.52,136.57c0-0.83-0.21-1.49-0.63-1.98   c-0.42-0.49-0.99-0.73-1.7-0.73c-0.73,0-1.31,0.24-1.73,0.73c-0.42,0.48-0.63,1.15-0.63,1.99c0,0.84,0.21,1.49,0.62,1.96   c0.41,0.47,0.99,0.7,1.72,0.7c0.75,0,1.32-0.23,1.73-0.7C235.31,138.06,235.52,137.41,235.52,136.57z"></path>		<path class="st0" d="M240.52,141.23v-9.3h2.65v1.46c0.49-0.61,1.01-1.05,1.57-1.34c0.56-0.29,1.18-0.43,1.86-0.43   c0.72,0,1.33,0.12,1.82,0.37c0.49,0.24,0.88,0.61,1.16,1.11c0.14,0.26,0.24,0.55,0.3,0.88c0.06,0.33,0.09,0.84,0.09,1.53v0.29   v5.43h-2.7v-4.6c0-1.14-0.13-1.9-0.4-2.27c-0.27-0.37-0.72-0.55-1.36-0.55c-0.37,0-0.72,0.08-1.03,0.23   c-0.31,0.16-0.57,0.37-0.78,0.66c-0.16,0.22-0.28,0.47-0.36,0.76c-0.07,0.28-0.11,0.72-0.11,1.3v0.37v4.1H240.52z"></path>		<path class="st0" d="M261.85,141.23h-2.62l0.04-1.34c-0.37,0.59-0.81,1.02-1.32,1.29c-0.51,0.27-1.14,0.41-1.88,0.41   c-1.23,0-2.23-0.46-2.98-1.37c-0.76-0.92-1.13-2.13-1.13-3.63c0-1.57,0.37-2.8,1.11-3.68c0.74-0.88,1.77-1.32,3.1-1.32   c0.68,0,1.27,0.15,1.78,0.46c0.51,0.31,0.99,0.8,1.44,1.47c-0.03-0.23-0.06-0.48-0.07-0.75c-0.02-0.27-0.02-0.59-0.02-0.94v-5.3   h2.56V141.23z M259.38,136.57c0-0.83-0.21-1.49-0.63-1.98c-0.42-0.49-0.99-0.73-1.7-0.73c-0.73,0-1.31,0.24-1.73,0.72   c-0.42,0.48-0.63,1.14-0.63,1.98c0,0.84,0.21,1.5,0.62,1.97c0.41,0.47,0.99,0.71,1.72,0.71c0.75,0,1.32-0.23,1.73-0.7   C259.18,138.06,259.38,137.41,259.38,136.57z"></path>		<path class="st0" d="M263.58,139.6l2.08-1.07c0.07,0.36,0.26,0.64,0.56,0.85c0.3,0.21,0.68,0.31,1.13,0.31   c0.44,0,0.79-0.08,1.04-0.24c0.25-0.16,0.38-0.38,0.38-0.67c0-0.45-0.45-0.82-1.35-1.13c-0.28-0.09-0.5-0.17-0.66-0.24   c-1.09-0.41-1.85-0.82-2.27-1.24c-0.42-0.42-0.63-0.93-0.63-1.55c0-0.91,0.36-1.65,1.07-2.21c0.71-0.56,1.66-0.84,2.83-0.84   c0.83,0,1.56,0.17,2.17,0.5c0.61,0.34,1.05,0.81,1.33,1.42l-1.98,0.99c-0.11-0.35-0.29-0.61-0.56-0.79c-0.27-0.18-0.6-0.27-1-0.27   c-0.4,0-0.72,0.08-0.97,0.25c-0.25,0.16-0.37,0.38-0.37,0.64c0,0.46,0.61,0.89,1.84,1.29c0.14,0.04,0.26,0.08,0.33,0.1   c1.02,0.34,1.74,0.73,2.17,1.17c0.43,0.45,0.64,1.01,0.64,1.7c0,0.92-0.36,1.66-1.07,2.2c-0.71,0.54-1.68,0.82-2.89,0.82   c-0.96,0-1.78-0.18-2.46-0.54C264.26,140.71,263.81,140.22,263.58,139.6z"></path>		<path class="st0" d="M288.63,141.23h-2.62l0.04-1.34c-0.37,0.59-0.81,1.02-1.32,1.29c-0.51,0.27-1.14,0.41-1.88,0.41   c-1.23,0-2.23-0.46-2.98-1.37c-0.76-0.92-1.13-2.13-1.13-3.63c0-1.57,0.37-2.79,1.11-3.66c0.74-0.88,1.77-1.31,3.1-1.31   c0.69,0,1.29,0.16,1.82,0.46c0.52,0.31,0.96,0.77,1.31,1.38v-1.54h2.56V141.23z M286.17,136.57c0-0.83-0.21-1.49-0.63-1.98   c-0.42-0.49-0.99-0.73-1.7-0.73c-0.73,0-1.31,0.24-1.73,0.73c-0.42,0.48-0.63,1.15-0.63,1.99c0,0.84,0.21,1.49,0.62,1.96   c0.41,0.47,0.99,0.7,1.72,0.7c0.75,0,1.32-0.23,1.73-0.7C285.96,138.06,286.17,137.41,286.17,136.57z"></path>		<path class="st0" d="M291.17,141.23v-9.3h2.65v1.46c0.49-0.61,1.01-1.05,1.57-1.34c0.56-0.29,1.18-0.43,1.86-0.43   c0.72,0,1.33,0.12,1.82,0.37c0.49,0.24,0.88,0.61,1.16,1.11c0.14,0.26,0.24,0.55,0.3,0.88c0.06,0.33,0.09,0.84,0.09,1.53v0.29   v5.43h-2.7v-4.6c0-1.14-0.13-1.9-0.4-2.27c-0.27-0.37-0.72-0.55-1.36-0.55c-0.37,0-0.72,0.08-1.03,0.23   c-0.31,0.16-0.57,0.37-0.78,0.66c-0.16,0.22-0.28,0.47-0.36,0.76c-0.07,0.28-0.11,0.72-0.11,1.3v0.37v4.1H291.17z"></path>		<path class="st0" d="M312.5,141.23h-2.62l0.04-1.34c-0.37,0.59-0.81,1.02-1.32,1.29c-0.51,0.27-1.14,0.41-1.88,0.41   c-1.23,0-2.23-0.46-2.98-1.37c-0.76-0.92-1.13-2.13-1.13-3.63c0-1.57,0.37-2.8,1.11-3.68c0.74-0.88,1.77-1.32,3.1-1.32   c0.68,0,1.27,0.15,1.78,0.46c0.51,0.31,0.99,0.8,1.44,1.47c-0.03-0.23-0.06-0.48-0.07-0.75c-0.02-0.27-0.02-0.59-0.02-0.94v-5.3   h2.56V141.23z M310.03,136.57c0-0.83-0.21-1.49-0.63-1.98c-0.42-0.49-0.99-0.73-1.7-0.73c-0.73,0-1.31,0.24-1.73,0.72   c-0.42,0.48-0.63,1.14-0.63,1.98c0,0.84,0.21,1.5,0.62,1.97c0.41,0.47,0.99,0.71,1.72,0.71c0.75,0,1.32-0.23,1.73-0.7   C309.83,138.06,310.03,137.41,310.03,136.57z"></path>		<path class="st0" d="M323.71,134.32c0.27-0.9,0.66-1.58,1.17-2.03c0.51-0.45,1.14-0.67,1.89-0.67c0.17,0,0.45,0.03,0.84,0.09   c0.08,0.01,0.13,0.02,0.17,0.03l-0.41,2.9c-0.2-0.08-0.41-0.14-0.61-0.18c-0.21-0.04-0.42-0.06-0.65-0.06   c-0.82,0-1.41,0.21-1.77,0.63c-0.36,0.42-0.54,1.12-0.54,2.11v4.1h-2.7v-9.3h2.66L323.71,134.32z"></path>		<path class="st0" d="M338.1,137.25h-6.99c0.11,0.67,0.35,1.17,0.73,1.5c0.38,0.33,0.89,0.5,1.55,0.5c0.49,0,0.92-0.09,1.28-0.28   c0.36-0.19,0.66-0.48,0.9-0.86l2.18,1.09c-0.51,0.82-1.12,1.42-1.84,1.82c-0.72,0.39-1.58,0.59-2.57,0.59   c-1.5,0-2.7-0.45-3.57-1.35s-1.32-2.1-1.32-3.62c0-1.46,0.46-2.66,1.38-3.6c0.92-0.94,2.1-1.41,3.53-1.41   c1.48,0,2.65,0.44,3.51,1.32c0.86,0.88,1.29,2.08,1.29,3.61c0,0.08,0,0.17-0.01,0.27C338.13,136.92,338.12,137.06,338.1,137.25z    M335.42,135.62c-0.08-0.59-0.29-1.03-0.64-1.33c-0.35-0.3-0.83-0.45-1.44-0.45c-0.61,0-1.09,0.15-1.46,0.45   c-0.36,0.3-0.6,0.74-0.7,1.33H335.42z"></path>		<path class="st0" d="M340.14,145.46v-13.53h2.59v1.54c0.35-0.62,0.79-1.08,1.3-1.39c0.51-0.31,1.11-0.46,1.8-0.46   c1.32,0,2.35,0.44,3.1,1.31c0.75,0.88,1.12,2.1,1.12,3.66c0,1.51-0.38,2.72-1.13,3.64c-0.75,0.91-1.74,1.37-2.97,1.37   c-0.74,0-1.37-0.14-1.88-0.41c-0.52-0.27-0.96-0.71-1.32-1.29c0.03,0.23,0.06,0.49,0.07,0.76c0.02,0.27,0.02,0.59,0.02,0.94v3.86   H340.14z M342.61,136.57c0,0.84,0.21,1.49,0.62,1.96c0.41,0.47,0.99,0.7,1.73,0.7c0.74,0,1.32-0.23,1.73-0.7   c0.41-0.47,0.62-1.12,0.62-1.96c0-0.84-0.21-1.5-0.63-1.99c-0.42-0.48-1-0.73-1.74-0.73c-0.71,0-1.28,0.24-1.7,0.73   C342.82,135.07,342.61,135.73,342.61,136.57z"></path>		<path class="st0" d="M354.76,131.93v4.89c0,0.82,0.16,1.41,0.48,1.76c0.32,0.35,0.84,0.53,1.56,0.53c0.71,0,1.23-0.18,1.55-0.54   c0.32-0.36,0.48-0.94,0.48-1.76v-4.89h2.7v4.89c0,1.64-0.38,2.84-1.15,3.62c-0.76,0.77-1.95,1.16-3.56,1.16   c-1.64,0-2.84-0.39-3.61-1.16c-0.77-0.77-1.15-1.98-1.15-3.62v-4.89H354.76z"></path>		<path class="st0" d="M364.46,141.23v-7.19h-1.3v-2.11h1.3v-3.09h2.7v3.09h1.3v2.11h-1.3v7.19H364.46z"></path>		<path class="st0" d="M379.46,141.23h-2.62l0.04-1.34c-0.37,0.59-0.81,1.02-1.32,1.29c-0.51,0.27-1.14,0.41-1.88,0.41   c-1.23,0-2.23-0.46-2.98-1.37c-0.76-0.92-1.13-2.13-1.13-3.63c0-1.57,0.37-2.79,1.11-3.66c0.74-0.88,1.77-1.31,3.1-1.31   c0.69,0,1.29,0.16,1.82,0.46c0.52,0.31,0.96,0.77,1.31,1.38v-1.54h2.56V141.23z M376.99,136.57c0-0.83-0.21-1.49-0.63-1.98   c-0.42-0.49-0.99-0.73-1.7-0.73c-0.73,0-1.31,0.24-1.73,0.73c-0.42,0.48-0.63,1.15-0.63,1.99c0,0.84,0.21,1.49,0.62,1.96   c0.41,0.47,0.99,0.7,1.72,0.7c0.75,0,1.32-0.23,1.73-0.7C376.78,138.06,376.99,137.41,376.99,136.57z"></path>		<path class="st0" d="M382.33,141.23v-7.19h-1.3v-2.11h1.3v-3.09h2.7v3.09h1.3v2.11h-1.3v7.19H382.33z"></path>		<path class="st0" d="M387.87,128.11c0-0.43,0.16-0.8,0.46-1.11c0.31-0.31,0.68-0.46,1.11-0.46c0.44,0,0.81,0.15,1.12,0.46   c0.31,0.31,0.47,0.68,0.47,1.11c0,0.44-0.16,0.81-0.47,1.12c-0.31,0.31-0.69,0.46-1.12,0.46c-0.43,0-0.8-0.16-1.11-0.47   C388.02,128.9,387.87,128.53,387.87,128.11z M388.1,141.23v-9.3h2.69v9.3H388.1z"></path>		<path class="st0" d="M403.32,136.61c0,1.43-0.49,2.62-1.46,3.57c-0.98,0.95-2.21,1.42-3.71,1.42c-1.51,0-2.76-0.47-3.74-1.42   c-0.98-0.95-1.47-2.14-1.47-3.57c0-1.42,0.49-2.61,1.48-3.57c0.99-0.95,2.23-1.43,3.73-1.43c1.5,0,2.74,0.47,3.72,1.41   C402.83,133.97,403.32,135.17,403.32,136.61z M400.57,136.6c0-0.76-0.22-1.36-0.66-1.82c-0.44-0.45-1.04-0.68-1.78-0.68   c-0.75,0-1.34,0.22-1.77,0.67c-0.44,0.45-0.65,1.06-0.65,1.82c0,0.76,0.22,1.37,0.65,1.82c0.44,0.46,1.03,0.68,1.77,0.68   c0.74,0,1.33-0.23,1.78-0.68C400.35,137.96,400.57,137.35,400.57,136.6z"></path>		<path class="st0" d="M405.36,141.23v-9.3H408v1.46c0.49-0.61,1.01-1.05,1.57-1.34c0.56-0.29,1.18-0.43,1.86-0.43   c0.72,0,1.33,0.12,1.82,0.37c0.49,0.24,0.88,0.61,1.16,1.11c0.14,0.26,0.24,0.55,0.3,0.88c0.06,0.33,0.09,0.84,0.09,1.53v0.29   v5.43h-2.7v-4.6c0-1.14-0.13-1.9-0.4-2.27c-0.27-0.37-0.72-0.55-1.36-0.55c-0.37,0-0.72,0.08-1.03,0.23   c-0.31,0.16-0.57,0.37-0.78,0.66c-0.16,0.22-0.28,0.47-0.36,0.76c-0.07,0.28-0.11,0.72-0.11,1.3v0.37v4.1H405.36z"></path>		<path class="st0" d="M416.45,139.6l2.08-1.07c0.07,0.36,0.26,0.64,0.56,0.85c0.3,0.21,0.68,0.31,1.13,0.31   c0.44,0,0.79-0.08,1.04-0.24c0.25-0.16,0.38-0.38,0.38-0.67c0-0.45-0.45-0.82-1.35-1.13c-0.28-0.09-0.5-0.17-0.66-0.24   c-1.09-0.41-1.85-0.82-2.27-1.24c-0.42-0.42-0.63-0.93-0.63-1.55c0-0.91,0.36-1.65,1.07-2.21c0.71-0.56,1.66-0.84,2.83-0.84   c0.83,0,1.56,0.17,2.17,0.5c0.61,0.34,1.05,0.81,1.33,1.42l-1.98,0.99c-0.11-0.35-0.29-0.61-0.56-0.79c-0.27-0.18-0.6-0.27-1-0.27   c-0.4,0-0.72,0.08-0.97,0.25c-0.25,0.16-0.37,0.38-0.37,0.64c0,0.46,0.61,0.89,1.84,1.29c0.14,0.04,0.26,0.08,0.33,0.1   c1.02,0.34,1.74,0.73,2.17,1.17c0.43,0.45,0.64,1.01,0.64,1.7c0,0.92-0.36,1.66-1.07,2.2c-0.71,0.54-1.68,0.82-2.89,0.82   c-0.96,0-1.78-0.18-2.46-0.54C417.13,140.71,416.68,140.22,416.45,139.6z"></path>	</g></g></svg>